<svg id="visual" viewBox="0 0 900 600" width="900" height="600" xmlns="http://www.w3.org/2000/svg" xmlns:xlink="http://www.w3.org/1999/xlink" version="1.1"><rect x="0" y="0" width="900" height="600" fill="#ffffff"></rect><g transform="translate(-23.268052300848638 -26.111814097997296)"><path d="M66.1 -98.9C96.8 -96.7 140.6 -101.6 192.3 -86.3C244 -71 303.5 -35.5 312.4 5.2C321.4 45.8 279.8 91.7 227.1 105.2C174.4 118.7 110.6 100 70.9 129C31.3 158.1 15.6 235.1 -12.9 257.5C-41.5 279.9 -83 247.8 -134.4 225.4C-185.8 203.1 -247 190.5 -253.8 154.6C-260.5 118.7 -212.8 59.3 -215.5 -1.6C-218.3 -62.5 -271.5 -125 -266.8 -164.5C-262.2 -204.1 -199.6 -220.7 -145.5 -209.4C-91.3 -198.2 -45.7 -159.1 -14 -134.8C17.7 -110.6 35.3 -101.2 66.1 -98.9" fill="#042241"></path></g></svg>