<svg id="visual" viewBox="0 0 1920 1080" width="1920" height="1080" xmlns="http://www.w3.org/2000/svg" xmlns:xlink="http://www.w3.org/1999/xlink" version="1.1"><rect x="0" y="0" width="1920" height="1080" fill="#ffffff"></rect><g transform="translate(58.96469105822973 -41.78055186175625)"><path d="M138.9 -228.7C181.7 -215.8 219.5 -182.1 221.1 -140.6C222.8 -99 188.4 -49.5 191.9 2C195.3 53.5 236.7 107 223.7 129.1C210.8 151.2 143.7 141.8 97.3 182.1C51 222.3 25.5 312.2 -3.9 319C-33.3 325.7 -66.7 249.5 -88.6 195.1C-110.5 140.8 -121 108.4 -163.7 79.5C-206.4 50.6 -281.2 25.3 -317.7 -21.1C-354.2 -67.5 -352.5 -135 -315.2 -173.1C-277.8 -211.2 -204.9 -219.9 -146.5 -223.8C-88 -227.8 -44 -226.9 2 -230.3C48 -233.8 96 -241.6 138.9 -228.7" fill="#CE417D"></path></g></svg>