<svg id="visual" viewBox="0 0 900 600" width="900" height="600" xmlns="http://www.w3.org/2000/svg" xmlns:xlink="http://www.w3.org/1999/xlink" version="1.1"><rect x="0" y="0" width="900" height="600" fill="#ffffff"></rect><g transform="translate(929.1116743377961 -61.07404409490084)"><path d="M178.8 -271.8C224 -283.7 247.5 -220.1 280.6 -162.2C313.7 -104.3 356.4 -52.2 363.7 4.2C371.1 60.7 343.2 121.3 319.8 196.1C296.5 270.9 277.7 359.7 225.2 416.9C172.7 474.1 86.3 499.5 37.7 434.2C-10.9 368.9 -21.9 212.9 -71.4 154C-120.9 95.1 -209 133.3 -277.5 123.8C-346 114.3 -395 57.2 -413.9 -10.9C-432.8 -79 -421.7 -158 -389.7 -230.9C-357.8 -303.8 -305.2 -370.6 -236.7 -345.2C-168.3 -319.9 -84.2 -202.4 -8.7 -187.4C66.8 -172.4 133.7 -259.9 178.8 -271.8" fill="#042241"></path></g></svg>