<svg id="visual" viewBox="0 0 900 600" width="900" height="600" xmlns="http://www.w3.org/2000/svg" xmlns:xlink="http://www.w3.org/1999/xlink" version="1.1"><rect x="0" y="0" width="900" height="600" fill="#ffffff"></rect><defs><linearGradient id="grad1_0" x1="33.3%" y1="0%" x2="100%" y2="100%"><stop offset="20%" stop-color="#ffffff" stop-opacity="1"></stop><stop offset="80%" stop-color="#ffffff" stop-opacity="1"></stop></linearGradient></defs><defs><linearGradient id="grad2_0" x1="0%" y1="0%" x2="66.7%" y2="100%"><stop offset="20%" stop-color="#ffffff" stop-opacity="1"></stop><stop offset="80%" stop-color="#ffffff" stop-opacity="1"></stop></linearGradient></defs><g transform="translate(900, 0)"><path d="M0 116C-9.4 125.3 -18.7 134.6 -26.4 132.6C-34 130.6 -40 117.2 -43.6 105.3C-47.2 93.4 -48.4 83 -51.1 76.5C-53.8 70 -57.9 67.5 -67.9 67.9C-77.8 68.3 -93.6 71.7 -101.4 67.8C-109.3 63.9 -109.2 52.6 -101.6 42.1C-94.1 31.6 -79.1 21.7 -74.5 14.8C-70 7.9 -76 4 -82 0L0 0Z" fill="#CD84B3"></path></g><g transform="translate(0, 600)"><path d="M0 -117C5 -102.7 10 -88.5 17.2 -86.3C24.4 -84.1 33.7 -94.1 37.9 -91.5C42 -88.8 40.9 -73.6 47.8 -71.5C54.7 -69.4 69.5 -80.3 84.1 -84.1C98.8 -88 113.2 -84.8 112.4 -75.1C111.7 -65.5 95.7 -49.4 97 -40.2C98.3 -31 116.8 -28.8 116.7 -23.2C116.6 -17.7 97.8 -8.8 79 0L0 0Z" fill="#CD84B3"></path></g></svg>